<?xml version="1.0" standalone="no"?><!DOCTYPE svg PUBLIC "-//W3C//DTD SVG 1.1//EN" "http://www.w3.org/Graphics/SVG/1.1/DTD/svg11.dtd"><svg t="1524128862888" class="icon" style="" viewBox="0 0 1024 1024" version="1.1" xmlns="http://www.w3.org/2000/svg" p-id="3883" xmlns:xlink="http://www.w3.org/1999/xlink" width="32" height="32"><defs><style type="text/css"></style></defs><path d="M505.6 204.8c0 12.8-12.8 25.6-44.8 44.8C307.2 364.8 236.8 454.4 236.8 524.8c0 38.4 25.6 70.4 70.4 83.2 70.4 25.6 96 70.4 96 115.2 0 38.4-19.2 134.4-134.4 134.4-89.6 0-204.8-64-204.8-217.6C64 486.4 211.2 320 416 172.8 428.8 160 441.6 160 448 160c12.8 0 25.6 6.4 38.4 19.2C499.2 192 505.6 198.4 505.6 204.8zM960 204.8c0 12.8-12.8 25.6-44.8 44.8-153.6 108.8-224 204.8-224 275.2 0 38.4 25.6 70.4 70.4 83.2 70.4 25.6 96 70.4 96 115.2 0 38.4-19.2 134.4-134.4 134.4-89.6 0-204.8-64-204.8-217.6 0-160 147.2-326.4 352-473.6 12.8-12.8 25.6-12.8 38.4-12.8C928 160 960 192 960 204.8z" p-id="3884"></path></svg>